<svg width="48" height="50" viewBox="0 0 48 50" fill="none" xmlns="http://www.w3.org/2000/svg">
<g clip-path="url(#clip0_577_127)">
<path d="M0 4C0 1.79086 1.79086 0 4 0H33C41.2843 0 48 6.71573 48 15V35C48 43.2843 41.2843 50 33 50H15C6.71573 50 0 43.2843 0 35V4Z" fill="#171717"/>
<path d="M79 52.5C79 45.7936 77.1003 39.2243 73.521 33.5529C69.9416 27.8815 64.8289 23.34 58.7751 20.4544C52.7212 17.5687 45.9738 16.4569 39.3141 17.2476C32.6544 18.0384 26.355 20.6995 21.1452 24.9226C15.9355 29.1457 12.0285 34.7582 9.8768 41.1101C7.72508 47.462 7.41662 54.2934 8.98714 60.8134C10.5577 67.3334 13.9429 73.2751 18.7509 77.9506C23.5589 82.626 29.5929 85.8439 36.1542 87.2317L39.0925 73.339C35.1557 72.5064 31.5353 70.5756 28.6505 67.7703C25.7657 64.9651 23.7346 61.4 22.7923 57.488C21.85 53.5761 22.035 49.4772 23.3261 45.666C24.6171 41.8549 26.9613 38.4874 30.0871 35.9536C33.213 33.4197 36.9927 31.8231 40.9885 31.3486C44.9843 30.8741 49.0327 31.5412 52.665 33.2726C56.2974 35.004 59.3649 37.7289 61.5126 41.1317C63.6602 44.5346 64.8 48.4761 64.8 52.5H79Z" fill="#EEECE7"/>
</g>
<defs>
<clipPath id="clip0_577_127">
<path d="M0 4C0 1.79086 1.79086 0 4 0H33C41.2843 0 48 6.71573 48 15V35C48 43.2843 41.2843 50 33 50H15C6.71573 50 0 43.2843 0 35V4Z" fill="white"/>
</clipPath>
</defs>
</svg>
